<?xml version="1.0" encoding="us-ascii" standalone="no"?><svg xmlns="http://www.w3.org/2000/svg" xmlns:xlink="http://www.w3.org/1999/xlink" contentStyleType="text/css" height="218px" preserveAspectRatio="none" style="width:767px;height:218px;background:#FFFFFF;" version="1.1" viewBox="0 0 767 218" width="767px" zoomAndPan="magnify"><defs/><g><!--cluster document--><g id="cluster_document"><path d="M8.5,6 L192.5,6 A3.75,3.75 0 0 1 195,8.5 L202,29.6094 L757.5,29.6094 A2.5,2.5 0 0 1 760,32.1094 L760,208.5 A2.5,2.5 0 0 1 757.5,211 L8.5,211 A2.5,2.5 0 0 1 6,208.5 L6,8.5 A2.5,2.5 0 0 1 8.5,6 " fill="none" style="stroke:#000000;stroke-width:1.5;"/><line style="stroke:#000000;stroke-width:1.5;" x1="6" x2="202" y1="29.6094" y2="29.6094"/><text fill="#000000" font-family="sans-serif" font-size="14" font-weight="bold" lengthAdjust="spacing" textLength="183" x="10" y="22.5332">MedComDocumentBundle</text></g><!--class composition--><g id="elem_composition"><rect codeLine="5" fill="#F1F1F1" height="32" id="composition" rx="2.5" ry="2.5" style="stroke:#181818;stroke-width:0.5;" width="230" x="201" y="42"/><ellipse cx="216" cy="58" fill="#ADD1B2" rx="11" ry="11" style="stroke:#181818;stroke-width:1.0;"/><path d="M218.7656,53.875 Q218.9219,53.6563 219.1094,53.5469 Q219.2969,53.4375 219.5156,53.4375 Q219.8906,53.4375 220.125,53.7031 Q220.3594,53.9531 220.3594,54.5625 L220.3594,56.0156 Q220.3594,56.625 220.125,56.8906 Q219.8906,57.1563 219.5156,57.1563 Q219.1719,57.1563 218.9688,56.9531 Q218.7656,56.7656 218.6563,56.25 Q218.6094,55.8906 218.4219,55.7031 Q218.0938,55.3281 217.4844,55.1094 Q216.875,54.8906 216.25,54.8906 Q215.4844,54.8906 214.8438,55.2188 Q214.2188,55.5469 213.7188,56.2969 Q213.2344,57.0469 213.2344,58.0781 L213.2344,59.1719 Q213.2344,60.4063 214.125,61.2344 Q215.0156,62.0469 216.6094,62.0469 Q217.5469,62.0469 218.2031,61.7969 Q218.5938,61.6406 219.0156,61.2031 Q219.2813,60.9375 219.4219,60.8594 Q219.5781,60.7813 219.7813,60.7813 Q220.1094,60.7813 220.3594,61.0469 Q220.625,61.2969 220.625,61.6406 Q220.625,61.9844 220.2813,62.3906 Q219.7813,62.9688 218.9844,63.2969 Q217.9063,63.75 216.6094,63.75 Q215.0938,63.75 213.8906,63.125 Q212.9063,62.625 212.2188,61.5625 Q211.5313,60.4844 211.5313,59.2031 L211.5313,58.0469 Q211.5313,56.7188 212.1406,55.5781 Q212.7656,54.4219 213.8594,53.8125 Q214.9531,53.1875 216.1875,53.1875 Q216.9219,53.1875 217.5625,53.3594 Q218.2188,53.5156 218.7656,53.875 Z " fill="#000000"/><text fill="#000000" font-family="sans-serif" font-size="14" lengthAdjust="spacing" textLength="198" x="230" y="63.7285">MedComDocumentComposition</text></g><!--class organization--><g id="elem_organization"><rect codeLine="6" fill="#F1F1F1" height="42.7031" id="organization" rx="2.5" ry="2.5" style="stroke:#181818;stroke-width:0.5;" width="232" x="22" y="152"/><ellipse cx="37" cy="173.3516" fill="#ADD1B2" rx="11" ry="11" style="stroke:#181818;stroke-width:1.0;"/><path d="M39.7656,169.2266 Q39.9219,169.0078 40.1094,168.8984 Q40.2969,168.7891 40.5156,168.7891 Q40.8906,168.7891 41.125,169.0547 Q41.3594,169.3047 41.3594,169.9141 L41.3594,171.3672 Q41.3594,171.9766 41.125,172.2422 Q40.8906,172.5078 40.5156,172.5078 Q40.1719,172.5078 39.9688,172.3047 Q39.7656,172.1172 39.6563,171.6016 Q39.6094,171.2422 39.4219,171.0547 Q39.0938,170.6797 38.4844,170.4609 Q37.875,170.2422 37.25,170.2422 Q36.4844,170.2422 35.8438,170.5703 Q35.2188,170.8984 34.7188,171.6484 Q34.2344,172.3984 34.2344,173.4297 L34.2344,174.5234 Q34.2344,175.7578 35.125,176.5859 Q36.0156,177.3984 37.6094,177.3984 Q38.5469,177.3984 39.2031,177.1484 Q39.5938,176.9922 40.0156,176.5547 Q40.2813,176.2891 40.4219,176.2109 Q40.5781,176.1328 40.7813,176.1328 Q41.1094,176.1328 41.3594,176.3984 Q41.625,176.6484 41.625,176.9922 Q41.625,177.3359 41.2813,177.7422 Q40.7813,178.3203 39.9844,178.6484 Q38.9063,179.1016 37.6094,179.1016 Q36.0938,179.1016 34.8906,178.4766 Q33.9063,177.9766 33.2188,176.9141 Q32.5313,175.8359 32.5313,174.5547 L32.5313,173.3984 Q32.5313,172.0703 33.1406,170.9297 Q33.7656,169.7734 34.8594,169.1641 Q35.9531,168.5391 37.1875,168.5391 Q37.9219,168.5391 38.5625,168.7109 Q39.2188,168.8672 39.7656,169.2266 Z " fill="#000000"/><text fill="#000000" font-family="sans-serif" font-size="12" font-style="italic" lengthAdjust="spacing" textLength="162" x="70" y="169.457">&#171;MedComCoreOrganization&#187;</text><text fill="#000000" font-family="sans-serif" font-size="14" lengthAdjust="spacing" textLength="200" x="51" y="186.627">MedComDocumentOrganization</text></g><!--class practitioner--><g id="elem_practitioner"><rect codeLine="7" fill="#F1F1F1" height="42.7031" id="practitioner" rx="2.5" ry="2.5" style="stroke:#181818;stroke-width:0.5;" width="224" x="289" y="152"/><ellipse cx="304" cy="173.3516" fill="#ADD1B2" rx="11" ry="11" style="stroke:#181818;stroke-width:1.0;"/><path d="M306.7656,169.2266 Q306.9219,169.0078 307.1094,168.8984 Q307.2969,168.7891 307.5156,168.7891 Q307.8906,168.7891 308.125,169.0547 Q308.3594,169.3047 308.3594,169.9141 L308.3594,171.3672 Q308.3594,171.9766 308.125,172.2422 Q307.8906,172.5078 307.5156,172.5078 Q307.1719,172.5078 306.9688,172.3047 Q306.7656,172.1172 306.6563,171.6016 Q306.6094,171.2422 306.4219,171.0547 Q306.0938,170.6797 305.4844,170.4609 Q304.875,170.2422 304.25,170.2422 Q303.4844,170.2422 302.8438,170.5703 Q302.2188,170.8984 301.7188,171.6484 Q301.2344,172.3984 301.2344,173.4297 L301.2344,174.5234 Q301.2344,175.7578 302.125,176.5859 Q303.0156,177.3984 304.6094,177.3984 Q305.5469,177.3984 306.2031,177.1484 Q306.5938,176.9922 307.0156,176.5547 Q307.2813,176.2891 307.4219,176.2109 Q307.5781,176.1328 307.7813,176.1328 Q308.1094,176.1328 308.3594,176.3984 Q308.625,176.6484 308.625,176.9922 Q308.625,177.3359 308.2813,177.7422 Q307.7813,178.3203 306.9844,178.6484 Q305.9063,179.1016 304.6094,179.1016 Q303.0938,179.1016 301.8906,178.4766 Q300.9063,177.9766 300.2188,176.9141 Q299.5313,175.8359 299.5313,174.5547 L299.5313,173.3984 Q299.5313,172.0703 300.1406,170.9297 Q300.7656,169.7734 301.8594,169.1641 Q302.9531,168.5391 304.1875,168.5391 Q304.9219,168.5391 305.5625,168.7109 Q306.2188,168.8672 306.7656,169.2266 Z " fill="#000000"/><text fill="#000000" font-family="sans-serif" font-size="12" font-style="italic" lengthAdjust="spacing" textLength="153" x="337.5" y="169.457">&#171;MedComCorePractitioner&#187;</text><text fill="#000000" font-family="sans-serif" font-size="14" lengthAdjust="spacing" textLength="192" x="318" y="186.627">MedComDocumentPractitioner</text></g><!--class patient--><g id="elem_patient"><rect codeLine="8" fill="#F1F1F1" height="42.7031" id="patient" rx="2.5" ry="2.5" style="stroke:#181818;stroke-width:0.5;" width="196" x="548" y="152"/><ellipse cx="563" cy="173.3516" fill="#ADD1B2" rx="11" ry="11" style="stroke:#181818;stroke-width:1.0;"/><path d="M565.7656,169.2266 Q565.9219,169.0078 566.1094,168.8984 Q566.2969,168.7891 566.5156,168.7891 Q566.8906,168.7891 567.125,169.0547 Q567.3594,169.3047 567.3594,169.9141 L567.3594,171.3672 Q567.3594,171.9766 567.125,172.2422 Q566.8906,172.5078 566.5156,172.5078 Q566.1719,172.5078 565.9688,172.3047 Q565.7656,172.1172 565.6563,171.6016 Q565.6094,171.2422 565.4219,171.0547 Q565.0938,170.6797 564.4844,170.4609 Q563.875,170.2422 563.25,170.2422 Q562.4844,170.2422 561.8438,170.5703 Q561.2188,170.8984 560.7188,171.6484 Q560.2344,172.3984 560.2344,173.4297 L560.2344,174.5234 Q560.2344,175.7578 561.125,176.5859 Q562.0156,177.3984 563.6094,177.3984 Q564.5469,177.3984 565.2031,177.1484 Q565.5938,176.9922 566.0156,176.5547 Q566.2813,176.2891 566.4219,176.2109 Q566.5781,176.1328 566.7813,176.1328 Q567.1094,176.1328 567.3594,176.3984 Q567.625,176.6484 567.625,176.9922 Q567.625,177.3359 567.2813,177.7422 Q566.7813,178.3203 565.9844,178.6484 Q564.9063,179.1016 563.6094,179.1016 Q562.0938,179.1016 560.8906,178.4766 Q559.9063,177.9766 559.2188,176.9141 Q558.5313,175.8359 558.5313,174.5547 L558.5313,173.3984 Q558.5313,172.0703 559.1406,170.9297 Q559.7656,169.7734 560.8594,169.1641 Q561.9531,168.5391 563.1875,168.5391 Q563.9219,168.5391 564.5625,168.7109 Q565.2188,168.8672 565.7656,169.2266 Z " fill="#000000"/><text fill="#000000" font-family="sans-serif" font-size="12" font-style="italic" lengthAdjust="spacing" textLength="95" x="611.5" y="169.457">&#171;DkCorePatient&#187;</text><text fill="#000000" font-family="sans-serif" font-size="14" lengthAdjust="spacing" textLength="164" x="577" y="186.627">MedComDocumentPatient</text></g><!--class clinical--><g id="elem_clinical"><rect codeLine="9" fill="#F1F1F1" height="32" id="clinical" rx="2.5" ry="2.5" style="stroke:#181818;stroke-width:0.5;" width="201" x="542.5" y="42"/><ellipse cx="557.5" cy="58" fill="#ADD1B2" rx="11" ry="11" style="stroke:#181818;stroke-width:1.0;"/><path d="M560.2656,53.875 Q560.4219,53.6563 560.6094,53.5469 Q560.7969,53.4375 561.0156,53.4375 Q561.3906,53.4375 561.625,53.7031 Q561.8594,53.9531 561.8594,54.5625 L561.8594,56.0156 Q561.8594,56.625 561.625,56.8906 Q561.3906,57.1563 561.0156,57.1563 Q560.6719,57.1563 560.4688,56.9531 Q560.2656,56.7656 560.1563,56.25 Q560.1094,55.8906 559.9219,55.7031 Q559.5938,55.3281 558.9844,55.1094 Q558.375,54.8906 557.75,54.8906 Q556.9844,54.8906 556.3438,55.2188 Q555.7188,55.5469 555.2188,56.2969 Q554.7344,57.0469 554.7344,58.0781 L554.7344,59.1719 Q554.7344,60.4063 555.625,61.2344 Q556.5156,62.0469 558.1094,62.0469 Q559.0469,62.0469 559.7031,61.7969 Q560.0938,61.6406 560.5156,61.2031 Q560.7813,60.9375 560.9219,60.8594 Q561.0781,60.7813 561.2813,60.7813 Q561.6094,60.7813 561.8594,61.0469 Q562.125,61.2969 562.125,61.6406 Q562.125,61.9844 561.7813,62.3906 Q561.2813,62.9688 560.4844,63.2969 Q559.4063,63.75 558.1094,63.75 Q556.5938,63.75 555.3906,63.125 Q554.4063,62.625 553.7188,61.5625 Q553.0313,60.4844 553.0313,59.2031 L553.0313,58.0469 Q553.0313,56.7188 553.6406,55.5781 Q554.2656,54.4219 555.3594,53.8125 Q556.4531,53.1875 557.6875,53.1875 Q558.4219,53.1875 559.0625,53.3594 Q559.7188,53.5156 560.2656,53.875 Z " fill="#000000"/><text fill="#000000" font-family="sans-serif" font-size="14" lengthAdjust="spacing" textLength="169" x="571.5" y="63.7285">*use case specific content*</text></g><!--link composition to organization--><g id="link_composition_organization"><path codeLine="11" d="M292.36,74.07 C260.97,94.09 205.38,129.53 170.18,151.98 " fill="none" id="composition-organization" style="stroke:#181818;stroke-width:1.0;"/><text fill="#000000" font-family="sans-serif" font-size="13" lengthAdjust="spacing" textLength="92" x="243" y="118.4951">authorInstitution</text></g><!--link composition to practitioner--><g id="link_composition_practitioner"><path codeLine="12" d="M327.46,74.31 C342.42,94.28 368.64,129.29 385.4,151.67 " fill="none" id="composition-practitioner" style="stroke:#181818;stroke-width:1.0;"/><text fill="#000000" font-family="sans-serif" font-size="13" lengthAdjust="spacing" textLength="77" x="362" y="118.4951">authorPerson</text></g><!--link composition to patient--><g id="link_composition_patient"><path codeLine="13" d="M360.32,74.05 C385.95,82.77 418.8,93.97 448,104 C494.61,120.01 547.35,138.26 586.68,151.9 " fill="none" id="composition-patient" style="stroke:#181818;stroke-width:1.0;"/><text fill="#000000" font-family="sans-serif" font-size="13" lengthAdjust="spacing" textLength="42" x="497" y="118.4951">subject</text></g><!--link composition to clinical--><g id="link_composition_clinical"><path codeLine="14" d="M431.29,58 C467.51,58 507.2,58 542.33,58 " fill="none" id="composition-clinical" style="stroke:#181818;stroke-width:1.0;"/><text fill="#000000" font-family="sans-serif" font-size="13" lengthAdjust="spacing" textLength="75" x="449.25" y="51.4951">section.entry</text></g><!--SRC=[VP5DJiCm48NtFiKeoqhX0AZgWdR30j4hJCT3OfhObd-42kBk37RL98Wqal_6ttksNtgZ6NZqwG8ZZoSEKIcFTCQEeNbXlNVZmL4UsQQdRFN03M04VIt1bmBvQC0O_-8ozIwQP9mj6fhMwwBNqA4rdtXJkLa1jjjAxrtWERdRhJiU0r8gft8eZdvMM3ZEoRkESgOCrQpEnUTmBXvrlPHlScGWb2vw9lDcICAmIRXDJMOmrX0EeAfg2WfQxJvikqpX4HhCgNVXsKQvRovPhIaNhxqfZ_AVxuckhn8-vjCxK_e73QRhKpjT_XSMKlOUH1ikZLBgMzeF]--></g></svg>